<?xml version="1.0" standalone="no"?>
<!DOCTYPE svg PUBLIC "-//W3C//DTD SVG 20010904//EN"
 "http://www.w3.org/TR/2001/REC-SVG-20010904/DTD/svg10.dtd">
<svg version="1.0" xmlns="http://www.w3.org/2000/svg"
 width="16.000000pt" height="16.000000pt" viewBox="0 0 16.000000 16.000000"
 preserveAspectRatio="xMidYMid meet">
<metadata>
Created by potrace 1.11, written by Peter Selinger 2001-2013
</metadata>
<g transform="translate(0.000000,16.000000) scale(0.006250,-0.006250)"
fill="#000000" stroke="none">
<path d="M0 1280 l0 -1280 1280 0 1280 0 0 824 0 824 -29 4 c-16 2 -169 2
-339 0 -227 -3 -312 -1 -317 8 -4 6 -2 23 3 38 6 15 13 135 16 267 3 132 9
320 12 418 7 173 7 177 -13 177 -19 0 -20 -9 -26 -251 -3 -138 -8 -254 -12
-257 -20 -20 -24 44 -18 266 l6 242 -921 0 -922 0 0 -1280z"/>
<path d="M1999 2538 c0 -13 0 -102 1 -198 0 -96 -6 -258 -15 -360 -20 -249
-20 -272 3 -268 22 4 30 57 32 203 0 61 5 178 10 260 5 83 12 203 16 268 l7
117 -27 0 c-20 0 -26 -5 -27 -22z"/>
<path d="M2107 2518 c-2 -24 -5 -120 -6 -214 -1 -95 -6 -254 -11 -355 -12
-239 -12 -229 4 -229 22 0 24 16 36 260 6 124 15 277 20 340 5 63 10 143 10
178 0 59 -1 62 -24 62 -21 0 -25 -6 -29 -42z"/>
<path d="M2220 2448 c0 -135 -17 -577 -26 -665 -5 -54 -3 -63 10 -63 9 0 21
10 26 23 8 18 44 527 52 747 l3 65 -32 3 -33 3 0 -113z"/>
<path d="M2320 2198 c-8 -200 -14 -390 -15 -423 l0 -60 35 0 35 0 7 65 c10 86
48 672 48 733 l0 47 -48 0 -48 0 -14 -362z"/>
<path d="M2550 2278 c0 -96 -15 -381 -26 -500 -6 -64 -5 -68 15 -68 21 0 21 1
21 330 0 182 -2 330 -5 330 -3 0 -5 -42 -5 -92z"/>
</g>
</svg>
