<?xml version="1.0" standalone="no"?>
<!DOCTYPE svg PUBLIC "-//W3C//DTD SVG 20010904//EN"
 "http://www.w3.org/TR/2001/REC-SVG-20010904/DTD/svg10.dtd">
<svg version="1.0" xmlns="http://www.w3.org/2000/svg"
 width="16.000000pt" height="16.000000pt" viewBox="0 0 16.000000 16.000000"
 preserveAspectRatio="xMidYMid meet">
<metadata>
Created by potrace 1.11, written by Peter Selinger 2001-2013
</metadata>
<g transform="translate(0.000000,16.000000) scale(0.003213,-0.003213)"
fill="#000000" stroke="none">
<path d="M1875 3780 c-4 -6 -127 -10 -336 -10 l-329 0 0 -320 c0 -176 0 -647
0 -1047 0 -526 -4 -730 -12 -740 -8 -10 -8 -17 0 -25 8 -8 12 -76 12 -220 l0
-208 478 0 c1647 -1 2075 0 2079 3 3 4 4 432 3 2080 l0 477 -930 0 c-613 0
-930 3 -930 10 0 6 -6 10 -14 10 -8 0 -18 -4 -21 -10z"/>
</g>
</svg>
