<?xml version="1.0" encoding="utf-8"?>
<!-- Generator: Adobe Illustrator 21.0.0, SVG Export Plug-In . SVG Version: 6.00 Build 0)  -->
<svg version="1.1" id="Layer_1" xmlns="http://www.w3.org/2000/svg" xmlns:xlink="http://www.w3.org/1999/xlink" x="0px" y="0px"
	 viewBox="0 0 1366 675" style="enable-background:new 0 0 1366 675;" xml:space="preserve">
<style type="text/css">
	.st0{opacity:0.75;enable-background:new    ;}
	.st1{fill:none;}
	.st2{fill:#C5B358;}
	.st3{font-family:'ParkLaneNF';}
	.st4{font-size:177px;}
</style>
<g id="Layer_2">
	<rect y="0.3" class="st0" width="1366" height="675"/>
</g>
<g id="Layer_3">
</g>
<g id="Layer_1_1_">
	<rect x="301" y="274.3" class="st1" width="764" height="139"/>
	<text transform="matrix(1 0 0 1 301 407.4373)" class="st2 st3 st4">Google</text>
	<g>
		<polygon class="st1" points="1289.8,39.1 1191.4,39.1 1289.8,125.7 		"/>
		<polygon class="st1" points="955.6,39.1 801.4,39.1 878.5,106.9 		"/>
		<polygon class="st1" points="683,189.1 581.2,189.1 589.5,196.4 682.4,196.4 683,196.4 683,196.4 683.6,196.4 776.7,196.4 
			785,189.1 		"/>
		<rect x="1078.8" y="246.6" class="st1" width="211" height="204.5"/>
		<polygon class="st1" points="1078.8,238.3 1289.8,238.3 1289.8,223.4 1094.5,223.4 1094.5,189.1 972,189.1 980.3,196.4 
			1078.8,196.4 		"/>
		<polygon class="st1" points="936.2,157.7 1120.4,157.7 1120.4,173.9 1289.8,173.9 1289.8,136.9 1178.6,39.1 968.4,39.1 
			884.9,112.5 		"/>
		<polygon class="st1" points="545.4,157.7 683,157.7 683,157.7 820.8,157.7 872.1,112.5 788.6,39.1 578.4,39.1 494.5,112.9 		"/>
		<polygon class="st1" points="245.5,157.7 430.8,157.7 481.7,112.9 397.8,39.1 187.5,39.1 76.2,137 76.2,173.9 245.5,173.9 		"/>
		<polygon class="st1" points="76.2,39.1 76.2,125.8 174.7,39.1 		"/>
		<polygon class="st1" points="565.6,39.1 410.6,39.1 488.1,107.3 		"/>
		<polygon class="st1" points="1366,498 1366,483.9 1350,498 		"/>
		<polygon class="st1" points="958.3,177.1 967.6,185.3 1098.9,185.3 1098.9,219.6 1289.8,219.6 1289.8,199.8 1109.6,199.5 
			1109.6,177.1 		"/>
		<polygon class="st1" points="1298.2,199.8 1298.2,219.6 1365.6,219.6 1365.6,223.4 1298.2,223.4 1298.2,238.3 1366,238.3 
			1366,203.8 1361.5,199.8 		"/>
		<polygon class="st1" points="1298.2,31.8 1298.2,133 1344.7,173.9 1366,173.9 1366,0.3 1147.2,0.3 1183.1,31.8 		"/>
		<polygon class="st1" points="1363.2,190.2 1366,190.2 1366,177.1 1348.3,177.1 		"/>
		<polygon class="st1" points="1298.2,498 1337.2,498 1360,478 1298.2,478 		"/>
		<polygon class="st1" points="1298.2,532.4 1308.1,523.6 1298.2,523.6 		"/>
		<polygon class="st1" points="1289.8,177.1 1120.4,177.1 1120.4,190 1289.8,190.1 		"/>
		<rect x="76.2" y="177.1" class="st1" width="169.4" height="12.9"/>
		<polygon class="st1" points="1298.2,520.4 1311.7,520.4 1326.4,507.5 1298.2,507.5 		"/>
		<polygon class="st1" points="683,177.1 567.6,177.1 576.9,185.3 683,185.3 683,185.3 789.4,185.3 798.7,177.1 		"/>
		<polygon class="st1" points="67.8,177.1 30.5,177.1 15.8,190 67.8,190 		"/>
		<polygon class="st1" points="844.7,539.9 683,539.9 683,539.9 521.5,539.9 494.5,563.7 576.4,635.7 790.6,635.7 872.1,564 		"/>
		<polygon class="st1" points="803.3,635.7 953.7,635.7 878.5,569.6 		"/>
		<polygon class="st1" points="683,508.5 809,508.5 800.6,501.1 683.6,501.1 683,501.1 683,501.1 682.4,501.1 565.6,501.1 
			557.3,508.5 		"/>
		<polygon class="st1" points="412.5,635.7 563.7,635.7 488.1,569.3 		"/>
		<rect x="1120.4" y="507.5" class="st1" width="169.4" height="12.9"/>
		<polygon class="st1" points="683,520.4 822.6,520.4 813.3,512.3 683,512.3 683,512.3 552.9,512.3 543.7,520.4 		"/>
		<polygon class="st1" points="1339.1,507.5 1324.4,520.4 1365.6,520.4 1365.6,523.6 1320.8,523.6 1298.2,543.5 1298.2,643 
			1185,643 1148.2,675.3 1366,675.3 1366,507.5 		"/>
		<polygon class="st1" points="1289.8,523.6 1120.4,523.6 1120.4,539.9 912.3,539.9 884.9,564 966.4,635.7 1180.6,635.7 
			1289.8,539.7 		"/>
		<polygon class="st1" points="1109.6,498 1289.8,498 1289.8,478 1098.9,478 1098.9,512.3 943.7,512.3 934.4,520.4 1109.6,520.4 		
			"/>
		<polygon class="st1" points="1094.5,474.2 1289.8,474.2 1289.8,459.3 1078.8,459.3 1078.8,501.1 956.4,501.1 948,508.5 
			1094.5,508.5 		"/>
		<rect x="76.2" y="246.6" class="st1" width="210.9" height="204.5"/>
		<polygon class="st1" points="67.8,144.3 34.1,173.9 67.8,173.9 		"/>
		<polygon class="st1" points="454.7,539.9 245.5,539.9 245.5,523.6 76.2,523.6 76.2,539.6 185.5,635.7 399.8,635.7 481.7,563.7 		
			"/>
		<polygon class="st1" points="1170.3,31.8 1134.5,0.3 1012.5,0.3 976.7,31.8 		"/>
		<polygon class="st1" points="287.1,196.4 386.7,196.4 395,189.1 271.4,189.1 271.4,223.4 76.2,223.4 76.2,238.3 287.1,238.3 		"/>
		<polygon class="st1" points="267.1,185.3 399.4,185.3 408.7,177.1 256.4,177.1 256.4,199.5 76.2,199.5 76.2,219.6 267.1,219.6 		
			"/>
		<polygon class="st1" points="256.4,520.4 432.6,520.4 423.3,512.3 267.1,512.3 267.1,478 76.2,478 76.2,498 256.4,498 		"/>
		<polygon class="st1" points="76.2,635.7 172.8,635.7 76.2,550.8 		"/>
		<rect x="76.2" y="507.5" class="st1" width="169.4" height="12.9"/>
		<polygon class="st1" points="271.4,508.5 419,508.5 410.6,501.1 287.1,501.1 287.1,459.3 76.2,459.3 76.2,474.2 271.4,474.2 		"/>
		<polygon class="st1" points="1298.2,451 1365.3,451 1365.3,459.3 1298.2,459.3 1298.2,474.2 1364.4,474.2 1366,472.7 1366,246.6 
			1298.2,246.6 		"/>
		<polygon class="st1" points="1298.2,144.2 1298.2,173.9 1332,173.9 		"/>
		<polygon class="st1" points="974.7,643 1011.5,675.3 1135.5,675.3 1172.3,643 		"/>
		<polygon class="st1" points="835.3,520.4 921.7,520.4 931,512.3 826,512.3 		"/>
		<polygon class="st1" points="1289.8,635.7 1289.8,550.8 1193.3,635.7 		"/>
		<polygon class="st1" points="878.5,558.4 899.6,539.9 857.4,539.9 		"/>
		<polygon class="st1" points="1335.6,177.1 1298.2,177.1 1298.2,190.1 1350.5,190.2 		"/>
		<polygon class="st1" points="963.9,31.8 999.8,0.3 757.2,0.3 793.1,31.8 		"/>
		<polygon class="st1" points="193.8,643 230.7,675.3 354.6,675.3 391.5,643 		"/>
		<polygon class="st1" points="584.7,643 621.5,675.3 745.5,675.3 782.3,643 		"/>
		<polygon class="st1" points="0,483.9 0,498 16.1,498 		"/>
		<polygon class="st1" points="795,643 758.2,675.3 998.8,675.3 962,643 		"/>
		<polygon class="st1" points="404.2,643 367.4,675.3 608.8,675.3 572,643 		"/>
		<polygon class="st1" points="802.1,185.3 954.9,185.3 945.6,177.1 811.4,177.1 		"/>
		<polygon class="st1" points="399.4,196.4 576.8,196.4 568.5,189.1 407.8,189.1 		"/>
		<polygon class="st1" points="833.5,157.7 923.5,157.7 878.5,118.1 		"/>
		<polygon class="st1" points="443.5,157.7 532.7,157.7 488.1,118.5 		"/>
		<polygon class="st1" points="821.7,508.5 935.3,508.5 943.7,501.1 813.3,501.1 		"/>
		<polygon class="st1" points="789.4,196.4 967.6,196.4 959.2,189.1 797.8,189.1 		"/>
		<polygon class="st1" points="412.1,185.3 564.1,185.3 554.8,177.1 421.4,177.1 		"/>
		<polygon class="st1" points="488.1,558.1 508.8,539.9 467.4,539.9 		"/>
		<polygon class="st1" points="1069.5,455.1 1069.5,451 1069.5,246.6 1069.5,242.4 1069.5,204.7 683.6,204.7 683,204.7 683,204.7 
			682.4,204.7 591.6,204.7 586.5,204.9 586.2,204.7 296.5,204.7 296.5,451.2 296.5,492.9 682.4,492.9 683,492.9 683,492.9 
			683.6,492.9 1069.5,492.9 		"/>
		<polygon class="st1" points="431.7,508.5 544.5,508.5 552.9,501.1 423.3,501.1 		"/>
		<polygon class="st1" points="445.3,520.4 530.9,520.4 540.2,512.3 436,512.3 		"/>
		<polygon class="st1" points="67.8,643 67.8,543.5 45.2,523.6 0.3,523.6 0.3,520.4 41.6,520.4 26.9,507.5 0,507.5 0,675.3 
			217.9,675.3 181.1,643 		"/>
		<polygon class="st1" points="54.4,520.4 67.8,520.4 67.8,507.5 39.7,507.5 		"/>
		<rect y="246.6" class="st1" width="67.8" height="204.5"/>
		<polygon class="st1" points="67.8,532.3 67.8,523.6 58,523.6 		"/>
		<polygon class="st1" points="0.3,190 3,190 17.7,177.1 0.7,177.1 0.7,173.9 21.3,173.9 67.8,133.1 67.8,31.8 183.1,31.8 
			218.9,0.3 0,0.3 0,192.7 0.3,192.4 		"/>
		<polygon class="st1" points="28.8,498 67.8,498 67.8,478 6,478 		"/>
		<polygon class="st1" points="67.8,223.4 0.3,223.4 0.3,219.6 67.8,219.6 67.8,199.5 4.9,199.5 2.6,201.6 0,203.9 0,238.3 
			67.8,238.3 		"/>
		<polygon class="st1" points="573.9,31.8 609.8,0.3 366.4,0.3 402.2,31.8 		"/>
		<polygon class="st1" points="389.5,31.8 353.6,0.3 231.7,0.3 195.8,31.8 		"/>
		<polygon class="st1" points="780.3,31.8 744.5,0.3 622.5,0.3 586.7,31.8 		"/>
		<polygon class="st1" points="67.8,474.2 67.8,459.3 0,459.3 0,472.7 1.7,474.2 		"/>
		<polygon class="st2" points="1120.4,523.6 1289.8,523.6 1289.8,520.4 1120.4,520.4 1120.4,507.5 1289.8,507.5 1289.8,498 
			1109.6,498 1109.6,520.4 934.4,520.4 912.3,539.9 1120.4,539.9 		"/>
		<polygon class="st2" points="16.1,498 0,498 0,507.5 26.9,507.5 		"/>
		<polygon class="st2" points="683,539.9 844.7,539.9 822.6,520.4 683,520.4 683,520.4 543.7,520.4 521.5,539.9 		"/>
		<polygon class="st2" points="0.3,523.6 45.2,523.6 41.6,520.4 0.3,520.4 		"/>
		<polygon class="st2" points="1298.2,507.5 1326.4,507.5 1337.2,498 1298.2,498 		"/>
		<polygon class="st2" points="1365.6,523.6 1365.6,520.4 1324.4,520.4 1320.8,523.6 		"/>
		<polygon class="st2" points="857.4,539.9 899.6,539.9 921.7,520.4 835.3,520.4 		"/>
		<polygon class="st2" points="1339.1,507.5 1366,507.5 1366,498 1350,498 		"/>
		<polygon class="st2" points="467.4,539.9 508.8,539.9 530.9,520.4 445.3,520.4 		"/>
		<polygon class="st2" points="1298.2,523.6 1308.1,523.6 1311.7,520.4 1298.2,520.4 		"/>
		<polygon class="st2" points="245.5,539.9 454.7,539.9 432.6,520.4 256.4,520.4 256.4,498 76.2,498 76.2,507.5 245.5,507.5 
			245.5,520.4 76.2,520.4 76.2,523.6 245.5,523.6 		"/>
		<polygon class="st2" points="58,523.6 67.8,523.6 67.8,520.4 54.4,520.4 		"/>
		<polygon class="st2" points="39.7,507.5 67.8,507.5 67.8,498 28.8,498 		"/>
		<polygon class="st2" points="1298.2,478 1360,478 1364.4,474.2 1298.2,474.2 		"/>
		<polygon class="st2" points="683,512.3 813.3,512.3 809,508.5 683,508.5 683,508.5 557.3,508.5 552.9,512.3 		"/>
		<polygon class="st2" points="1098.9,478 1289.8,478 1289.8,474.2 1094.5,474.2 1094.5,508.5 948,508.5 943.7,512.3 1098.9,512.3 
					"/>
		<polygon class="st2" points="826,512.3 931,512.3 935.3,508.5 821.7,508.5 		"/>
		<polygon class="st2" points="6,478 67.8,478 67.8,474.2 1.7,474.2 		"/>
		<polygon class="st2" points="436,512.3 540.2,512.3 544.5,508.5 431.7,508.5 		"/>
		<polygon class="st2" points="267.1,512.3 423.3,512.3 419,508.5 271.4,508.5 271.4,474.2 76.2,474.2 76.2,478 267.1,478 		"/>
		<path class="st2" d="M1298.2,643v-99.4l22.7-19.9l3.6-3.2l14.7-12.9l10.8-9.5l16-14.1v-11.2l-1.6,1.4l-4.3,3.8l-22.8,20l-10.8,9.5
			l-14.7,12.9l-3.6,3.2l-9.9,8.7v-8.7v-3.2v-12.9V498v-20v-3.8v-14.9h67.1V451h-67.1V246.6h67.8v-8.3h-67.8v-14.9h67.5v-3.8h-67.5
			v-19.8l63.3,0.1l4.5,4v-11.2v-2.5h-2.8l-14.9-13.1h17.7v-3.2h-21.3l-46.6-40.9V31.8h-115.1l-35.8-31.5h-12.7l35.8,31.5H976.7
			l35.8-31.5h-12.7L964,31.8H793.1L757.2,0.3h-12.7l35.8,31.5H586.7l35.8-31.5h-12.7L574,31.8H402.2L366.4,0.3h-12.7l35.9,31.5
			H195.8l35.9-31.5H219l-35.9,31.5H67.8V133l-46.5,40.9H0.7v3.2h17L3,190H0.3v2.4L0,192.7v11.2l2.6-2.3l2.3-2h62.9v20H0.3v3.8h67.6
			v14.9H0v8.3h67.8V451H0v8.2h67.8v14.9v3.8v20v9.5v12.9v3.2v8.7l-9.9-8.7l-3.6-3.2l-14.7-12.9L28.8,498L6,478l-4.3-3.8L0,472.7
			v11.2L16.1,498l10.8,9.5l14.7,12.9l3.6,3.2l22.6,19.9V643h113.3l36.8,32.3h12.7L193.8,643h197.6l-36.8,32.3h12.7l36.8-32.3H572
			l36.8,32.3h12.7L584.7,643h197.6l-36.8,32.3h12.7L795,643h167l36.8,32.3h12.7L974.7,643h197.6l-36.8,32.3h12.7L1185,643H1298.2z
			 M1298.2,144.2l33.8,29.7h-33.8V144.2z M1298.2,177.1h37.5l14.9,13.1h-52.3L1298.2,177.1L1298.2,177.1z M1289.8,635.7h-96.5
			l96.5-84.8V635.7z M935.3,508.5l-4.3,3.8l-9.3,8.2L899.6,540l-21.1,18.5L857.4,540l-22.1-19.5l-9.3-8.2l-4.3-3.8l-8.3-7.3h130.3
			L935.3,508.5z M683.6,492.9H683l0,0h-0.6H296.5v-41.7V204.7h289.7l0.3,0.2l5.1-0.2h90.8h0.6l0,0h0.6h385.9v37.8v4.1V451v4.1v37.8
			H683.6z M544.5,508.5l-4.3,3.8l-9.3,8.2L508.8,540l-20.7,18.2L467.4,540l-22.1-19.5l-9.3-8.2l-4.3-3.8l-8.3-7.3H553L544.5,508.5z
			 M554.8,177.1l9.3,8.2h-152l9.3-8.2H554.8z M443.5,157.7l44.6-39.2l44.6,39.2H443.5z M568.5,189.1l8.3,7.3H399.4l8.3-7.3H568.5z
			 M945.6,177.1l9.3,8.2H802.1l9.3-8.2H945.6z M833.5,157.7l45-39.5l45,39.5H833.5z M959.2,189.1l8.3,7.3H789.4l8.3-7.3H959.2z
			 M1289.8,199.8v19.8h-191v-34.3H967.6l-9.3-8.2h151.2v22.4L1289.8,199.8z M1120.4,190v-12.9h169.4v13L1120.4,190z M789.4,185.3
			H683l0,0H576.9l-9.3-8.2H683l0,0h115.7L789.4,185.3z M785,189.1l-8.3,7.3h-93.1H683l0,0h-0.6h-92.8l-8.3-7.3H683l0,0H785z
			 M980.3,196.4l-8.3-7.3h122.6v34.3h195.3v14.9h-211v-41.9H980.3z M1078.8,246.6h211V451h-211V246.6z M1289.8,39.1v86.6l-98.5-86.6
			H1289.8z M968.4,39.1h210.3l111.2,97.7v37.1h-169.4v-16.3H936.2l-51.3-45.1L968.4,39.1z M955.6,39.1l-77.1,67.8l-77.1-67.8H955.6z
			 M578.4,39.1h210.3l83.5,73.4l-51.3,45.1H683l0,0H545.4l-51-44.8L578.4,39.1z M565.6,39.1l-77.5,68.1l-77.6-68.1H565.6z
			 M76.2,39.1h98.6l-98.6,86.6C76.2,125.7,76.2,39.1,76.2,39.1z M76.2,137l111.3-97.8h210.3l83.9,73.7l-50.9,44.8H245.5V174H76.2
			V137z M76.2,177.1h169.4V190H76.2V177.1z M76.2,199.5h180.2v-22.4h152.3l-9.3,8.2H267.1v34.3H76.2V199.5z M76.2,223.4h195.3v-34.3
			H395l-8.3,7.3h-99.6v41.9H76.2V223.4z M76.2,246.6h210.9V451H76.2V246.6z M67.8,144.3V174H34.1L67.8,144.3z M15.8,190l14.7-12.9
			h37.4V190H15.8z M76.2,635.7v-84.9l96.6,84.9H76.2z M399.8,635.7H185.5L76.2,539.6v-16v-3.2v-12.9V498v-20v-3.8v-14.9h210.9v41.9
			h123.5l8.3,7.3l4.3,3.8l9.3,8.2l22.1,19.5l27,23.8L399.8,635.7z M412.5,635.7l75.6-66.4l75.6,66.4H412.5z M790.6,635.7H576.4
			l-81.9-72l27.1-23.8l22.1-19.5l9.3-8.2l4.3-3.8l8.3-7.3h116.7h0.6l0,0h0.6h117l8.3,7.3l4.3,3.8l9.3,8.2l22.1,19.5l27.4,24.1
			L790.6,635.7z M803.3,635.7l75.2-66.1l75.2,66.1H803.3z M966.4,635.7L884.9,564l27.4-24.1l22.1-19.5l9.3-8.2l4.3-3.8l8.3-7.3
			h122.4v-41.9h211v14.9v3.8v20v9.5v12.9v3.2v16l-109.3,96h-214V635.7z"/>
	</g>
</g>
</svg>
